<svg width="329" height="217" viewBox="0 0 329 217" fill="none" xmlns="http://www.w3.org/2000/svg">
<g clip-path="url(#clip0)">
<path d="M5.04497 96.0303C5.04497 96.0303 -23.1988 15.4638 53.9684 11.4191C131.136 7.37443 116.922 28.652 185.452 15.5075C253.982 2.36299 255.136 -6.73368 290.839 6.40769C326.541 19.5491 328.835 53.416 321.362 70.6021C313.889 87.7881 298.902 101.435 300.053 111.04C301.203 120.645 325.418 145.343 328.62 162.021C330.379 171.127 325.267 186.657 320.49 187.318C284.981 192.345 142.383 184.075 142.383 184.075L59.6115 180.832L15.3074 175.484C15.3074 175.484 16.8237 152.959 16.676 135.149C16.5247 116.899 5.04497 96.0303 5.04497 96.0303Z" fill="#F8F8FF"/>
<path d="M15.4692 173.001C15.4692 173.001 5.81543 208.356 58.7847 205.951C111.754 203.547 111.124 198.333 144.547 207.554C177.969 216.776 198.779 220.387 224.634 213.168C250.489 205.948 251.119 207.146 283.904 207.146C316.69 207.146 327.916 176.138 328.771 171.907C329.781 166.917 327.42 150.551 322.734 150.501C288.08 150.127 73.4343 148.533 56.512 152.684C41.9715 156.246 24.4968 168.077 16.092 171.23" fill="#F5F5FC"/>
<path d="M21.802 141.968L54.5208 130.117L55.0837 11.5021C55.0837 11.5021 30.9492 12.8618 21.4502 20.9699L21.802 141.968Z" fill="#C1C7FF"/>
<path d="M21.4502 20.9699L22.2488 141.812L16.5248 143.917C16.5248 143.917 17.341 138.419 15.9337 126.481C14.639 115.354 1.34043 88.3545 0.34127 78.0385C-0.36236 70.7256 0.0281551 40.8784 8.25711 32.0187C15.8528 23.842 21.4502 20.9699 21.4502 20.9699Z" fill="#C1C7FF"/>
<path d="M38.9724 56.1688C42.7051 55.5925 45.3662 53.2684 44.9161 50.9778C44.466 48.6872 41.0752 47.2974 37.3425 47.8737C33.6098 48.4499 30.9487 50.774 31.3988 53.0646C31.8489 55.3553 35.2397 56.745 38.9724 56.1688Z" fill="white"/>
<path d="M46.5985 54.1335C49.644 53.6633 51.8153 51.7677 51.4482 49.8996C51.0812 48.0315 48.3147 46.8982 45.2692 47.3684C42.2237 47.8385 40.0524 49.7341 40.4195 51.6022C40.7866 53.4704 43.553 54.6036 46.5985 54.1335Z" fill="white"/>
<path d="M8.00897 70.8234C11.7417 70.2471 14.4028 67.923 13.9527 65.6324C13.5026 63.3418 10.1118 61.952 6.37907 62.5283C2.64637 63.1045 -0.0147143 65.4286 0.435367 67.7192C0.885449 70.0099 4.27626 71.3996 8.00897 70.8234Z" fill="white"/>
<path d="M14.5814 66.9181C17.6269 66.448 19.7982 64.5524 19.4311 62.6843C19.0641 60.8161 16.2976 59.6829 13.2521 60.153C10.2066 60.6232 8.03533 62.5188 8.40239 64.3869C8.76946 66.255 11.5359 67.3883 14.5814 66.9181Z" fill="white"/>
<path d="M24.2436 19.0146L25.9042 18.1944L25.9816 18.1601L27.0159 17.7017L28.0045 17.3056L29.6088 139.102L26.168 140.368L24.2436 19.0146Z" fill="white"/>
<path d="M11.631 111.385L11.2475 110.237C11.1877 110.278 10.9485 109.404 10.9274 109.389L10.4876 108.453L10.0901 107.437L54.7249 92.4896L54.8726 95.8139L11.631 111.385Z" fill="white"/>
<path d="M0.773994 80.6112L0.647346 79.9408C0.56291 79.7443 0.46793 78.9709 0.394049 78.7869L0.211098 77.5083L0.0492554 76.5728L55.0943 57.9241L54.9289 61.1986L0.773994 80.6112Z" fill="white"/>
<path d="M152.549 119.999C153.735 118.635 154.508 117.025 154.797 115.322C155.121 113.248 155.968 110.603 158.114 108.792C161.376 106.032 161.858 94.4465 161.925 90.1492C161.942 88.526 162.23 86.914 162.78 85.3654C163.754 82.6492 165.749 78.8883 169.619 77.0733C173.563 75.224 186.154 74.4662 189.827 77.1762C197.303 82.7053 196.258 89.9621 196.374 91.1128C196.941 96.5452 196.593 100.509 199.71 103.917C202.827 107.326 206.352 111.495 205.434 115.718C204.515 119.94 212.716 126.168 203.741 128.766C194.767 131.363 185.595 133.16 175.596 132.452C166.737 131.828 154.624 130.553 152.243 125.357C151.061 122.759 151.655 121.054 152.549 119.999Z" fill="#FFBDD1"/>
<path d="M154.783 119.323C155.198 118.793 155.736 118.001 156.693 117.586C157.65 117.171 159.567 115.955 169.024 119.41C182.53 124.347 193.651 118.325 194.707 118.206C195.762 118.088 205.3 115.437 205.036 120.976C204.772 126.514 193.514 129.527 190.073 129.648C186.633 129.77 172.461 130.973 165.446 129.168C158.431 127.362 155.761 124.98 155.286 124.387C154.765 123.739 153.031 121.556 154.783 119.323Z" fill="#FFABC5"/>
<path d="M205.56 159.617H205.078C204.76 159.622 204.445 159.571 204.15 159.466C203.855 159.361 203.587 159.204 203.362 159.005C203.137 158.806 202.959 158.568 202.84 158.307C202.721 158.046 202.663 157.766 202.668 157.484L202.721 154.824C202.724 154.667 202.779 154.515 202.879 154.385C202.979 154.256 203.12 154.156 203.284 154.097L203.506 154.019C203.655 153.967 203.786 153.88 203.884 153.768C203.983 153.656 204.046 153.522 204.066 153.381C204.087 153.24 204.064 153.096 204.001 152.966C203.937 152.835 203.836 152.722 203.706 152.638C203.56 152.551 203.403 152.479 203.238 152.426C201.771 151.933 198.665 150.333 190.513 149.594C186.066 149.192 183.779 149.061 182.618 149.023C182.482 149.019 182.349 148.987 182.229 148.93C182.108 148.874 182.004 148.794 181.924 148.696C181.844 148.598 181.789 148.486 181.765 148.367C181.741 148.248 181.748 148.126 181.785 148.01C181.843 147.826 181.973 147.668 182.152 147.562C182.33 147.456 182.546 147.41 182.759 147.433C185.633 147.745 195.808 148.846 199.122 149.538C201.09 149.977 202.969 150.684 204.691 151.634C205.022 151.82 205.301 152.069 205.508 152.363C205.716 152.657 205.847 152.989 205.891 153.333C205.902 153.451 205.943 153.565 206.01 153.666C206.077 153.768 206.168 153.856 206.278 153.923C206.605 154.124 206.96 154.287 207.333 154.409C207.889 154.574 207.872 156.324 207.763 157.74C207.726 158.24 207.48 158.71 207.072 159.057C206.665 159.404 206.125 159.604 205.56 159.617V159.617Z" fill="#FFB4CB"/>
<path d="M179.308 133.724L179.237 157.334C179.237 157.483 179.171 157.626 179.052 157.731C178.933 157.836 178.772 157.895 178.604 157.895H178.463C178.379 157.895 178.295 157.91 178.217 157.94C178.139 157.969 178.068 158.012 178.009 158.065C177.95 158.119 177.904 158.183 177.873 158.253C177.842 158.323 177.828 158.397 177.83 158.472L177.943 162.458C177.956 162.93 178.175 163.379 178.553 163.711C178.932 164.044 179.44 164.234 179.973 164.242L181.38 164.26C181.668 164.265 181.953 164.218 182.22 164.121C182.486 164.025 182.727 163.881 182.929 163.699C183.13 163.516 183.287 163.3 183.39 163.062C183.494 162.824 183.541 162.569 183.53 162.314L183.368 158.438C183.362 158.293 183.293 158.155 183.175 158.053C183.057 157.952 182.899 157.895 182.734 157.895V157.895C182.651 157.895 182.568 157.881 182.491 157.852C182.414 157.824 182.344 157.782 182.285 157.73C182.227 157.678 182.18 157.615 182.148 157.547C182.117 157.478 182.101 157.405 182.101 157.331L182.175 133.119C182.176 133.044 182.159 132.971 182.127 132.902C182.095 132.833 182.048 132.77 181.988 132.718C181.929 132.665 181.858 132.624 181.78 132.596C181.702 132.568 181.619 132.554 181.535 132.555H179.92C179.835 132.555 179.75 132.571 179.672 132.6C179.594 132.63 179.523 132.674 179.464 132.729C179.405 132.784 179.36 132.848 179.33 132.919C179.3 132.99 179.286 133.065 179.29 133.141L179.308 133.724Z" fill="#FFB4CB"/>
<path d="M179.329 150.838C179.329 150.838 157.808 158.519 154.413 161.067C151.018 163.615 150.462 165.227 150.617 165.91C150.617 165.982 150.747 166.035 150.913 166.069C151.321 166.17 151.678 166.389 151.929 166.692C152.18 166.994 152.309 167.362 152.295 167.738L152.218 171.754C152.212 172.052 152.074 172.335 151.835 172.544C151.595 172.753 151.273 172.87 150.937 172.871H148.51C148.173 172.871 147.85 172.753 147.609 172.544C147.369 172.334 147.231 172.05 147.226 171.751L147.148 167.759C147.14 167.348 147.299 166.948 147.598 166.633C147.897 166.318 148.315 166.11 148.774 166.047H148.816C148.816 166.047 149.66 163.029 150.966 161.993C152.271 160.958 154.561 158.647 163.571 155.173C172.581 151.699 179.322 149.51 179.322 149.51L179.329 150.838Z" fill="#FFABC5"/>
<path d="M182.066 150.542C182.064 150.666 182.105 150.788 182.182 150.892C182.259 150.996 182.369 151.077 182.499 151.125C185.454 152.248 202.63 158.831 205.564 161.157C208.776 163.705 209.3 165.318 209.156 166C209.124 166.156 208.649 166.219 208.224 166.241C208.039 166.249 207.865 166.321 207.74 166.442C207.615 166.563 207.548 166.722 207.555 166.886L207.632 171.146C207.641 171.632 207.864 172.095 208.255 172.436C208.645 172.776 209.171 172.967 209.719 172.967H210.327C210.87 172.967 211.391 172.778 211.778 172.441C212.165 172.104 212.387 171.646 212.396 171.165L212.477 166.92C212.479 166.77 212.419 166.623 212.308 166.509C212.198 166.394 212.044 166.319 211.875 166.297L211.344 166.219C211.208 166.201 211.081 166.148 210.978 166.066C210.875 165.985 210.802 165.878 210.767 165.76C210.507 164.909 209.807 162.901 208.846 162.09C207.611 161.048 205.444 158.744 196.916 155.27C190.383 152.61 185.141 150.707 183.051 149.968C182.942 149.927 182.824 149.91 182.706 149.92C182.588 149.93 182.475 149.967 182.377 150.026C182.279 150.085 182.199 150.165 182.146 150.258C182.092 150.352 182.066 150.456 182.07 150.561L182.066 150.542Z" fill="#FFABC5"/>
<path d="M61.2053 173.465L61.5571 119.203H69.6489V173.776L61.2053 173.465Z" fill="#E1E4FF"/>
<path d="M248.047 118.236L248.371 174.088H255.407L255.562 118.464L248.047 118.236Z" fill="#E1E4FF"/>
<path d="M36.5782 112.654V119.203L278.627 118.579V112.966L36.5782 112.654Z" fill="#E1E4FF"/>
<path d="M36.5782 112.654L53.8172 107.976L258.925 108.288L278.627 112.966L36.5782 112.654Z" fill="#262A53"/>
<path d="M146.513 110.842L150.57 108.653L169.251 108.544L166.433 110.67L146.513 110.842Z" fill="#F8F8FF"/>
<path d="M53.4935 96.4064C53.4935 96.4064 50.4362 96.2817 50.0422 97.1549C49.6482 98.0281 50.7458 109.941 51.2243 110.646C51.7028 111.35 56.5754 111.556 57.9545 111.556C57.9545 111.556 63.0594 111.154 63.3091 110.845C63.5589 110.536 67.0208 98.2183 65.888 96.5717C64.7551 94.9252 53.6694 96.447 53.6694 96.447" fill="#E9EDFC"/>
<path d="M49.7924 99.2069C49.7924 99.2069 59.2914 99.8524 60.4137 99.5686C61.536 99.2848 61.1666 96.762 61.1666 96.762L65.888 96.5748C65.888 96.5748 65.888 99.001 65.5678 99.2879C65.211 99.6678 64.9377 100.104 64.7622 100.573C64.7622 100.716 62.7674 111.035 62.7674 111.035C62.7674 111.035 59.7101 111.453 59.3055 111.41C58.827 111.357 60.5791 102.874 60.5791 102.285C60.5791 101.695 60.5791 100.573 60.0971 100.573C59.6151 100.573 50.3025 100.822 50.2463 99.8992C50.1655 99.6392 50.009 99.4025 49.7924 99.2131" fill="#628395"/>
<path d="M53.5322 96.6746C53.5322 96.6746 50.883 95.0249 49.4758 94.8753C48.0685 94.7256 46.4291 94.5665 45.0218 94.3701C43.6145 94.1736 41.8203 93.6185 41.8555 92.8888C41.8906 92.159 42.0595 91.8098 42.8863 91.3763C43.5834 90.9741 44.3731 90.7152 45.1977 90.6185C45.8169 90.5686 52.1707 92.0312 54.8198 95.527L55.8753 96.6746H53.5322Z" fill="#628395"/>
<path d="M44.3674 92.5988C44.3674 92.5988 46.802 92.5707 48.1354 92.9543C49.179 93.2995 50.1907 93.7166 51.161 94.2017L55.1471 96.6622" fill="#628395"/>
<path d="M44.3674 92.5988C44.3674 92.5988 46.802 92.5707 48.1354 92.9543C49.179 93.2995 50.1907 93.7166 51.161 94.2017L55.1471 96.6622" stroke="white" stroke-width="0.229526" stroke-miterlimit="10" stroke-linecap="round"/>
<path d="M56.3292 96.5811C56.3292 96.5811 53.2472 92.8701 52.0476 91.8254C50.8479 90.7807 49.4441 89.5863 48.2867 88.4948C47.1292 87.4033 45.6692 85.8378 46.2848 85.1954C46.9005 84.553 47.3403 84.1164 48.4626 84.2599C49.34 84.3431 50.1802 84.6185 50.9077 85.0613C51.5304 85.4168 57.1242 90.1476 57.944 95.5832L58.7496 96.684L56.3292 96.5811Z" fill="#628395"/>
<path d="M49.0853 86.4584C49.0853 86.4584 51.4846 87.7308 52.4275 88.9532C53.3176 90.0946 54.7284 92.1372 54.7284 92.1372L56.3291 96.0322" stroke="white" stroke-width="0.229526" stroke-miterlimit="10" stroke-linecap="round"/>
<path d="M57.8631 96.7495C57.8631 96.7495 54.264 89.8233 53.592 88.4543C52.9201 87.0852 50.1724 85.0239 49.5637 83.6268C48.9551 82.2297 48.5681 81.2131 49.2119 80.4459C49.8557 79.6788 51.5128 79.0426 52.5647 79.5104C53.5604 79.9407 54.8551 81.2505 55.4109 81.9148C55.8507 82.4387 58.7989 91.8472 58.5561 94.0177L59.1191 96.7963L57.8631 96.7495Z" fill="#E9EDFC"/>
<path d="M51.5233 82.0925C51.5233 82.0925 53.5885 84.4501 54.2147 85.8347C54.9184 87.394 55.622 90.3659 55.5305 89.8888L57.6872 96.3035" stroke="white" stroke-width="0.229526" stroke-miterlimit="10" stroke-linecap="round"/>
<path d="M55.8894 96.7121C55.8894 96.7121 52.7231 93.5094 51.1786 92.8888C49.6341 92.2682 47.8786 91.5665 46.3693 90.8992C44.86 90.2318 43.0481 89.0998 43.3542 88.42C43.6603 87.7401 43.9769 87.4657 45.064 87.3378C46.0169 87.1949 46.9921 87.2182 47.9349 87.4064C48.6385 87.5686 55.2526 91.1112 56.9519 95.3181L57.7364 96.7682L55.8894 96.7121Z" fill="#E9EDFC"/>
<path d="M46.2743 88.9969C46.2743 88.9969 49.0149 89.7952 50.3729 90.6123C51.4097 91.2848 52.3925 92.0205 53.3141 92.8139L56.3573 96.7495" stroke="white" stroke-width="0.229526" stroke-miterlimit="10" stroke-linecap="round"/>
<path d="M64.1711 96.7838C64.1711 96.7838 67.0384 95.2245 68.5618 95.0655C70.0851 94.9065 71.8512 94.7723 73.3746 94.5821C74.898 94.3919 76.84 93.8649 76.8013 93.1663C76.7626 92.4678 76.5831 92.1372 75.686 91.7193C74.9159 91.3309 74.065 91.0848 73.1846 90.9958C72.5126 90.9491 65.6382 92.343 62.7709 95.6736L61.6134 96.7713L64.1711 96.7838Z" fill="#628395"/>
<path d="M74.0923 92.8888C74.0923 92.8888 71.4607 92.8607 70.0147 93.2287C68.8935 93.5537 67.8 93.9497 66.7429 94.4137L62.9186 96.6902" fill="#628395"/>
<path d="M74.0923 92.8888C74.0923 92.8888 71.4607 92.8607 70.0147 93.2287C68.8935 93.5537 67.8 93.9497 66.7429 94.4137L62.9186 96.6902" stroke="white" stroke-width="0.229526" stroke-miterlimit="10" stroke-linecap="round"/>
<path d="M61.149 96.6934C61.149 96.6934 64.4807 93.1507 65.7789 92.1528C67.0771 91.1549 68.5934 90.0135 69.8494 88.9719C71.1054 87.9304 72.6815 86.4366 72.013 85.8191C71.3446 85.2017 70.8732 84.7869 69.6559 84.9179C68.7204 84.9928 67.816 85.254 67.0102 85.6819C66.3383 86.0187 60.2835 90.5405 59.397 95.7297L58.528 96.7807L61.149 96.6934Z" fill="#628395"/>
<path d="M68.9875 87.0166C68.9875 87.0166 66.3911 88.2297 65.3708 89.3867C64.4068 90.4782 62.8835 92.4272 62.8835 92.4272L61.149 96.1445" stroke="white" stroke-width="0.229526" stroke-miterlimit="10" stroke-linecap="round"/>
<path d="M59.4849 96.868C59.4849 96.868 63.3795 90.2536 64.1043 88.9439C64.829 87.6341 67.8054 85.6757 68.4633 84.3347C69.1211 82.9938 69.5398 82.027 68.8502 81.2973C68.1607 80.5676 66.3629 79.9563 65.223 80.3929C64.1465 80.8046 62.7603 82.0551 62.1411 82.6882C61.6627 83.1902 58.4752 92.1715 58.7356 94.2485L58.1269 96.9023L59.4849 96.868Z" fill="#E9EDFC"/>
<path d="M59.1155 96.7838C59.1155 96.7838 59.4286 90.3316 60.171 88.2329C60.6741 86.842 61.1666 84.4907 61.8245 83.1653C62.4824 81.8399 61.4727 80.0967 60.7972 79.3638C60.1217 78.631 58.3345 78.7713 57.1805 79.2048C56.104 79.6164 55.4848 80.948 55.3476 81.659C55.2244 82.3077 57.8103 90.0946 57.5359 92.9449L57.7575 96.8243L59.1155 96.7838Z" fill="#628395"/>
<path d="M66.3453 82.8534C66.3453 82.8534 64.1113 85.105 63.4323 86.4241C62.6653 87.9179 61.9019 90.7526 62.025 90.2848L59.4955 96.5842" stroke="white" stroke-width="0.229526" stroke-miterlimit="10" stroke-linecap="round"/>
<path d="M61.624 96.8181C61.624 96.8181 65.0682 93.7588 66.7182 93.1663C68.3682 92.5738 70.2892 91.9189 71.9216 91.2672C73.554 90.6154 75.5136 89.5489 75.1829 88.9002C74.8522 88.2516 74.5109 87.9896 73.3324 87.8649C72.3003 87.7284 71.2494 87.7506 70.2258 87.9304C69.4519 88.0863 62.31 91.4667 60.47 95.4865L59.6221 96.8711L61.624 96.8181Z" fill="#E9EDFC"/>
<path d="M72.0271 89.4522C72.0271 89.4522 69.0578 90.2162 67.5908 90.9927C66.4832 91.6294 65.4254 92.3317 64.4244 93.0946L61.0681 96.394" stroke="white" stroke-width="0.229526" stroke-miterlimit="10" stroke-linecap="round"/>
<path d="M58.3908 80.5832C58.3908 80.5832 58.9854 86.1123 58.6406 87.5998C58.4963 88.2235 58.5667 92.1123 58.5667 92.1123L58.4436 96.4376" stroke="white" stroke-width="0.229526" stroke-miterlimit="10" stroke-linecap="round"/>
<path d="M154.788 78.1195H116.131V105.02H154.788V78.1195Z" fill="#FFDEDE"/>
<path d="M134.64 93.8399C135.922 93.8399 136.962 92.9184 136.962 91.7817C136.962 90.645 135.922 89.7235 134.64 89.7235C133.357 89.7235 132.318 90.645 132.318 91.7817C132.318 92.9184 133.357 93.8399 134.64 93.8399Z" fill="#C5C5F7"/>
<path d="M132.223 104.38C132.223 104.38 133.194 106.648 132.086 107.284C130.977 107.92 124.134 110.312 124.134 110.312C124.134 110.312 123.628 111.032 124.838 111.263C125.918 111.472 139.794 111.307 142.781 111.263C142.989 111.276 143.196 111.231 143.375 111.135C143.553 111.039 143.693 110.896 143.776 110.727C143.847 110.505 143.759 110.262 143.228 110.103C142.309 109.81 138.932 108.179 137.454 107.474C136.934 107.225 136.793 106.744 136.691 106.305C136.522 105.597 136.395 104.814 136.958 104.664C137.838 104.43 132.275 104.736 132.275 104.736" fill="#FFDEDE"/>
<path d="M102.909 75.3597L203.465 75.2162L203.261 60.3067L97.2101 61.0333L97.1467 75.3597H102.909Z" fill="#B5B5DF"/>
<path d="M153.208 62.9823V73.2484L200.521 73.105V63.1258L153.208 62.9823Z" fill="#FEE2EB"/>
<path d="M102.635 62.9823V73.2484L149.947 73.105V63.1258L102.635 62.9823Z" fill="#FEE2EB"/>
<path d="M102.639 65.4553H105.105L105.129 73.2734L102.635 73.2484L102.639 65.4553Z" fill="white"/>
<path d="M105.151 66.8243H106.811L106.871 73.2391L105.129 73.2734L105.151 66.8243Z" fill="#46697B"/>
<path d="M146.879 65.3961H148.329L148.343 73.211L146.879 73.1892V65.3961Z" fill="white"/>
<path d="M148.364 66.7651H150.025L150.084 73.1798L148.343 73.211L148.364 66.7651Z" fill="#46697B"/>
<path d="M106.945 65.8202H108.605L108.665 73.2578L106.924 73.2952L106.945 65.8202Z" fill="#46697B"/>
<path d="M108.57 67.6071L109.422 67.0021L113.731 72.5811L112.802 73.2485L108.57 67.6071Z" fill="white"/>
<path d="M128.687 73.211H139.058L139.006 72.1788L128.687 72.2287V73.211Z" fill="white"/>
<path d="M130.432 72.2006H140.807L140.751 71.1684L130.432 71.2183V72.2006Z" fill="#B5B5DF"/>
<path d="M154.869 65.0811H156.326L156.34 73.3077L154.866 73.2828L154.869 65.0811Z" fill="white"/>
<path d="M156.357 66.8337H158.014L158.074 73.2453L156.333 73.2796L156.357 66.8337Z" fill="#46697B"/>
<path d="M197.375 65.3555H198.825L198.839 73.1705L197.375 73.1487V65.3555Z" fill="white"/>
<path d="M198.818 66.6123L200.545 66.6279L200.612 73.1081L198.846 73.13L198.818 66.6123Z" fill="#46697B"/>
<path d="M195.718 67.264H197.379L197.446 73.1674L195.676 73.1861L195.718 67.264Z" fill="#46697B"/>
<path d="M153.194 65.8389H154.855L154.915 73.2765L153.173 73.3139L153.194 65.8389Z" fill="#46697B"/>
<path d="M170.402 67.6289L171.253 67.0239L175.563 72.6029L174.634 73.2703L170.402 67.6289Z" fill="white"/>
<path d="M163.372 73.2328H173.747L173.691 72.2006L163.372 72.2505V73.2328Z" fill="white"/>
<path d="M162.802 72.2599H173.174L173.118 71.2277L162.802 71.2776V72.2599Z" fill="#B5B5DF"/>
<path d="M203.37 59.5489L203.268 47.6019H297.551L297.783 76.1487L203.451 76.8316L203.37 60.6123" fill="#B5B5DF"/>
<path d="M136.219 52.604C136.219 52.604 135.312 52.3358 135.238 52.1362C135.164 51.9366 134.861 50.7952 135.463 50.7952H140.606C140.606 50.7952 141.437 52.0021 140.381 52.2703C139.326 52.5385 140.23 53.0063 140.533 53.0063C140.835 53.0063 141.514 53.0062 141.665 53.3399C141.817 53.6736 141.806 60.7058 141.806 60.7058H134.179V53.8794C134.177 53.7823 134.197 53.6859 134.238 53.5958C134.279 53.5057 134.34 53.4239 134.418 53.3553C134.495 53.2866 134.587 53.2324 134.689 53.196C134.791 53.1597 134.9 53.1418 135.009 53.1435C135.843 53.1403 136.448 52.9408 136.219 52.604Z" fill="#B5B5DF"/>
<path d="M140.656 55.3077H135.305V58.2484H140.656V55.3077Z" fill="white"/>
<path d="M144.937 52.604C144.937 52.604 144.03 52.3358 143.956 52.1362C143.882 51.9366 143.579 50.7952 144.181 50.7952H149.324C149.324 50.7952 150.155 52.0021 149.099 52.2703C148.044 52.5385 148.948 53.0063 149.251 53.0063C149.553 53.0063 150.232 53.0062 150.383 53.3399C150.535 53.6736 150.524 60.7058 150.524 60.7058H142.897V53.8794C142.895 53.7823 142.915 53.6859 142.956 53.5958C142.997 53.5057 143.058 53.4239 143.136 53.3553C143.213 53.2866 143.305 53.2324 143.407 53.196C143.509 53.1597 143.618 53.1418 143.727 53.1435C144.586 53.1403 145.177 52.9408 144.937 52.604Z" fill="#FEE2EB"/>
<path d="M149.384 55.3077H144.033V58.2484H149.384V55.3077Z" fill="white"/>
<path d="M153.965 52.5198C153.965 52.5198 153.057 52.2516 152.983 52.052C152.909 51.8524 152.607 50.711 153.208 50.711H158.352C158.352 50.711 159.182 51.9179 158.127 52.1861C157.071 52.4543 157.976 52.922 158.278 52.922C158.581 52.922 159.26 52.922 159.411 53.2557C159.562 53.5894 159.552 60.6216 159.552 60.6216H151.924V53.7952C151.922 53.6981 151.943 53.6017 151.984 53.5116C152.025 53.4215 152.086 53.3397 152.163 53.2711C152.241 53.2024 152.333 53.1482 152.435 53.1118C152.536 53.0755 152.645 53.0576 152.755 53.0593C153.585 53.0561 154.19 52.8566 153.965 52.5198Z" fill="#B5B5DF"/>
<path d="M158.401 55.2204H153.05V58.1611H158.401V55.2204Z" fill="white"/>
<path d="M250.176 50.5052H206.614V74.0873H250.176V50.5052Z" fill="#FEE2EB"/>
<path d="M254.841 64.5915C255.89 64.5915 256.741 63.8375 256.741 62.9075C256.741 61.9775 255.89 61.2235 254.841 61.2235C253.792 61.2235 252.941 61.9775 252.941 62.9075C252.941 63.8375 253.792 64.5915 254.841 64.5915Z" fill="#FEE2EB"/>
<path d="M235.706 65.9948C235.706 65.9948 234.798 65.7266 234.724 65.527C234.65 65.3275 234.348 64.1861 234.949 64.1861H240.093C240.093 64.1861 240.923 65.3929 239.868 65.6611C238.812 65.9293 239.716 66.3971 240.019 66.3971C240.321 66.3971 241 66.3971 241.152 66.7308C241.303 67.0645 241.292 74.0967 241.292 74.0967H233.665V67.2672C233.663 67.17 233.683 67.0736 233.724 66.9835C233.765 66.8935 233.827 66.8117 233.904 66.743C233.982 66.6743 234.074 66.6202 234.175 66.5838C234.277 66.5474 234.386 66.5295 234.495 66.5312C235.319 66.5312 235.924 66.3285 235.706 65.9948Z" fill="white"/>
<path d="M240.131 68.6954H234.78V71.6362H240.131V68.6954Z" fill="#46697B"/>
</g>
<defs>
<clipPath id="clip0">
<rect width="329" height="217" fill="white"/>
</clipPath>
</defs>
</svg>
