<svg width="287" height="349" viewBox="0 0 287 349" fill="none" xmlns="http://www.w3.org/2000/svg">
<g clip-path="url(#clip0)">
<path d="M0.976816 138.899C0.976816 138.899 6.09863 31.6894 90.8912 46.3099C175.684 60.9305 177.614 2.04051 221.538 0.0151618C263.807 -1.93406 335.569 194.092 237.42 291.428C153.397 374.761 78.084 359.165 37.6043 295.327C-2.87542 231.489 0.976816 138.899 0.976816 138.899Z" fill="#F5F5FC"/>
<path d="M77.1814 165.21V177.057H74.2073L70.8226 165.21H63.1073V124.624L139.07 125.048V165.324H131.186L128.12 177.057H125.159L125.477 165.218L77.1814 165.21Z" fill="#BAC5F4"/>
<path d="M134.326 128.596H67.3374V144.138H134.326V128.596Z" fill="#8096DD"/>
<path d="M72.8262 130.132H69.3872V142.507H72.8262V130.132Z" fill="#FFABC5"/>
<path d="M78.0378 130.132H74.5988V142.507H78.0378V130.132Z" fill="#FFABC5"/>
<path d="M81.3655 130.365L78.9499 132.813L87.7582 141.505L90.1737 139.057L81.3655 130.365Z" fill="#FFABC5"/>
<path d="M105.43 134.759H91.5953V137.241H105.43V134.759Z" fill="#FFABC5"/>
<path d="M105.43 138.443H91.5953V142.507H105.43V138.443Z" fill="#FFABC5"/>
<path d="M134.326 146.302H67.3374V161.844H134.326V146.302Z" fill="#8096DD"/>
<path d="M83.793 147.884H81.6616V160.259H83.793V147.884Z" fill="#FFABC5"/>
<path d="M80.6829 151.622H78.5516V160.262H80.6829V151.622Z" fill="#FFABC5"/>
<path d="M88.0014 147.884H84.5624V160.259H88.0014V147.884Z" fill="#FFABC5"/>
<path d="M115.537 148.694L109.551 159.525L112.561 161.188L118.547 150.358L115.537 148.694Z" fill="#FFABC5"/>
<path d="M132.847 152.465H119.012V154.947H132.847V152.465Z" fill="#FFABC5"/>
<path d="M132.847 156.149H119.012V160.213H132.847V156.149Z" fill="#FFABC5"/>
<path d="M117.014 117.086H103.179V119.568H117.014V117.086Z" fill="white"/>
<path d="M117.014 120.769H103.179V124.833H117.014V120.769Z" fill="white"/>
<path d="M143.969 177.057H223.708V61.9526H142.909L143.969 177.057Z" fill="#BAC5F4"/>
<path d="M217.849 67.2838H148.272V100.671H217.849V67.2838Z" fill="#8096DD"/>
<path d="M218.096 140.234H148.52V173.621H218.096V140.234Z" fill="#8096DD"/>
<path d="M218.096 104.072H148.52V137.459H218.096V104.072Z" fill="#8096DD"/>
<path d="M216.098 105.529H150.164V135.515H216.098V105.529Z" fill="#BAC5F4"/>
<path d="M158.649 71.291H152.103V99.363H158.649V71.291Z" fill="#FFABC5"/>
<path d="M167.286 71.291H160.74V99.363H167.286V71.291Z" fill="#FFABC5"/>
<path d="M168.754 144.334H162.208V172.406H168.754V144.334Z" fill="#FFABC5"/>
<path d="M171.085 167.366L171.044 172.18L199.115 172.42L199.157 167.606L171.085 167.366Z" fill="#FFABC5"/>
<path d="M212.626 143.051L200.595 170.707L205.01 172.628L217.041 144.971L212.626 143.051Z" fill="#FFABC5"/>
<path d="M171.394 163.483L171.36 166.938L199.432 167.219L199.466 163.763L171.394 163.483Z" fill="#FFABC5"/>
<path d="M165.481 170.995C166.293 170.995 166.952 170.337 166.952 169.524C166.952 168.712 166.293 168.053 165.481 168.053C164.669 168.053 164.01 168.712 164.01 169.524C164.01 170.337 164.669 170.995 165.481 170.995Z" fill="#8096DD"/>
<path d="M173.816 171.077C174.435 171.077 174.936 170.575 174.936 169.956C174.936 169.338 174.435 168.836 173.816 168.836C173.198 168.836 172.696 169.338 172.696 169.956C172.696 170.575 173.198 171.077 173.816 171.077Z" fill="#8096DD"/>
<path d="M203.721 170.644C204.339 170.644 204.841 170.143 204.841 169.524C204.841 168.906 204.339 168.404 203.721 168.404C203.102 168.404 202.601 168.906 202.601 169.524C202.601 170.143 203.102 170.644 203.721 170.644Z" fill="#8096DD"/>
<path d="M187.054 91.9781L186.958 98.5237L215.027 98.9353L215.123 92.3897L187.054 91.9781Z" fill="#FFABC5"/>
<path d="M187.012 87.5288L186.957 91.2747L215.026 91.6862L215.081 87.9404L187.012 87.5288Z" fill="#FFABC5"/>
<path d="M164.013 96.2748C164.825 96.2748 165.484 95.6163 165.484 94.804C165.484 93.9917 164.825 93.3333 164.013 93.3333C163.201 93.3333 162.542 93.9917 162.542 94.804C162.542 95.6163 163.201 96.2748 164.013 96.2748Z" fill="#8096DD"/>
<path d="M211.469 97.1963C212.281 97.1963 212.939 96.5378 212.939 95.7256C212.939 94.9133 212.281 94.2548 211.469 94.2548C210.656 94.2548 209.998 94.9133 209.998 95.7256C209.998 96.5378 210.656 97.1963 211.469 97.1963Z" fill="#8096DD"/>
<path d="M211.469 90.7859C211.976 90.7859 212.387 90.3745 212.387 89.8671C212.387 89.3596 211.976 88.9482 211.469 88.9482C210.961 88.9482 210.55 89.3596 210.55 89.8671C210.55 90.3745 210.961 90.7859 211.469 90.7859Z" fill="#8096DD"/>
<path d="M155.376 96.2748C156.188 96.2748 156.847 95.6163 156.847 94.804C156.847 93.9917 156.188 93.3333 155.376 93.3333C154.564 93.3333 153.905 93.9917 153.905 94.804C153.905 95.6163 154.564 96.2748 155.376 96.2748Z" fill="#8096DD"/>
<path d="M183.062 105.257H181.434V136.075H183.062V105.257Z" fill="#8096DD"/>
<path d="M176.736 122.958C177.409 122.958 177.954 122.412 177.954 121.74C177.954 121.067 177.409 120.522 176.736 120.522C176.063 120.522 175.518 121.067 175.518 121.74C175.518 122.412 176.063 122.958 176.736 122.958Z" fill="#8096DD"/>
<path d="M186.681 122.958C187.353 122.958 187.898 122.412 187.898 121.74C187.898 121.067 187.353 120.522 186.681 120.522C186.008 120.522 185.463 121.067 185.463 121.74C185.463 122.412 186.008 122.958 186.681 122.958Z" fill="#8096DD"/>
<path d="M197.974 285.684L204.77 258.77H197.974L195.799 285.684H197.974Z" fill="white"/>
<path d="M236.577 258.226L244.189 256.595L245.277 280.79H242.83L236.577 258.226Z" fill="white"/>
<path d="M197.43 236.469C197.43 236.469 184.924 239.188 185.196 247.616C185.468 256.043 190.905 259.034 208.848 259.577C226.79 260.121 243.102 258.49 249.083 254.412C255.064 250.334 256.695 238.101 256.151 234.023C255.607 229.945 251.53 208.74 256.151 196.778C260.773 184.816 262.676 177.204 262.132 176.117C261.588 175.029 258.598 167.417 249.083 175.301C239.568 183.185 226.519 197.594 224.616 214.449C224.126 218.78 216.218 215.808 211.023 215.808C205.827 215.808 199.605 214.993 195.799 220.973C191.742 227.351 192.808 233.751 197.43 236.469Z" fill="#BAC5F4"/>
<path d="M190.09 239.46C190.09 239.46 224.026 249.888 239.84 244.353C256.458 238.53 255.099 244.921 256.021 239.83C256.515 237.095 256.352 232.457 255.73 231.176C255.281 230.257 248.583 232.807 242.295 235.094C230.629 239.356 208.04 237.559 202.331 233.482C196.622 229.404 194.91 222.95 194.91 222.95C194.91 222.95 190.56 230.113 196.331 235.306C197.984 236.796 194.795 237.152 192.773 237.918C190.75 238.685 190.09 239.46 190.09 239.46Z" fill="#B0C0F4"/>
<path d="M30.6257 285.249L39.0342 310.472H51.1319L58.1051 285.249L42.7261 279.915L30.6257 285.249Z" fill="#E1E6FB"/>
<path d="M38.1806 264.637C38.1806 264.637 6.5363 268.405 0.495605 299.812C0.495605 299.812 53.0023 291.02 47.7256 277.452C42.4488 263.884 38.1806 264.637 38.1806 264.637Z" fill="#628395"/>
<path d="M52.0209 271.702C52.0209 271.702 48.0708 235.765 16.6331 229.078C16.6331 229.078 25.7295 288.674 39.2653 282.612C52.8012 276.549 52.0209 271.702 52.0209 271.702Z" fill="#628395"/>
<path d="M39.858 266.251C39.858 266.251 48.9109 242.056 68.8408 244.179C75.2838 244.864 71.7171 257.5 71.7171 257.5L65.7552 251.15C65.7552 251.15 58.8011 279.469 52.0291 278.724C45.2571 277.979 39.858 266.251 39.858 266.251Z" fill="#628395"/>
<path d="M43.4846 283.047C43.4846 283.047 70.181 293.826 65.9101 313.903C65.9101 313.903 80.0767 299.747 66.3723 279.92C52.6679 260.094 48.098 272.474 48.098 272.474L43.4846 283.047Z" fill="#628395"/>
<path d="M54.1631 262.432C54.1631 262.432 81.0771 257.81 85.1305 261.399C89.1839 264.987 82.1401 280.595 77.2276 283.047C77.2276 283.047 79.1496 276.954 79.1496 273.11C79.1496 269.266 65.0565 281.013 63.5613 281.013C62.0661 281.013 52.0291 267.344 52.0291 267.344L54.1631 262.432Z" fill="#628395"/>
<path d="M42.0899 275.427C42.0899 275.427 55.4708 254.263 61.4517 248.814C64.8417 245.726 68.4303 248.496 70.6948 251.487" stroke="white" stroke-width="0.815575" stroke-linecap="round" stroke-linejoin="round"/>
<path d="M42.0899 275.427C42.0899 275.427 70.3985 264.623 78.47 264.09C83.0454 263.788 84.111 267.934 80.8542 276.568" stroke="white" stroke-width="0.815575" stroke-linecap="round" stroke-linejoin="round"/>
<path d="M42.0899 275.427C42.0899 275.427 54.9461 279.695 61.4924 284.45C63.8658 286.176 69.0637 291.597 68.6967 301.514" stroke="white" stroke-width="0.815575" stroke-linecap="round" stroke-linejoin="round"/>
<path d="M22.1872 235.904C22.1872 235.904 24.9656 243.472 31.0226 248.833C34.4562 251.873 40.0863 265.001 42.0899 275.427" stroke="white" stroke-width="0.815575" stroke-linecap="round" stroke-linejoin="round"/>
<path d="M8.81992 293.6C8.81992 293.6 13.6101 286.657 20.3712 282.218C26.8414 277.969 32.0611 274.589 42.0899 275.421" stroke="white" stroke-width="0.815575" stroke-linecap="round" stroke-linejoin="round"/>
</g>
<defs>
<clipPath id="clip0">
<rect width="286.188" height="348.656" fill="white" transform="translate(0.495605)"/>
</clipPath>
</defs>
</svg>
