<svg width="287" height="303" viewBox="0 0 287 303" fill="none" xmlns="http://www.w3.org/2000/svg">
<g clip-path="url(#clip0)">
<path d="M102.557 20.6156C70.2956 53.0233 54.388 30.5039 33.9866 62.1606C20.7865 82.6296 13.06 110.581 21.599 147.814C44.7959 248.924 42.9919 238.61 74.0532 259.238C105.114 279.865 96.5109 313.754 138.798 299.02C181.085 284.286 233.278 318.178 248.94 263.169C264.601 208.159 224.006 159.425 253.58 129.029C283.154 98.6339 269.323 4.60243 189.278 1.65441C144.75 0.0146714 128.693 -5.64376 102.557 20.6156Z" fill="#F8F8FF"/>
<path d="M96.0915 57.4233C59.4246 79.573 41.3463 64.17 18.1582 85.824C3.16877 99.8161 -5.62542 118.927 4.0781 144.374C30.446 213.498 28.3956 206.437 63.6955 220.547C98.9955 234.656 89.2157 257.818 137.282 247.745C185.347 237.672 244.669 260.839 262.465 223.234C280.262 185.628 234.123 152.311 267.745 131.531C301.367 110.752 285.639 46.4643 194.673 44.452C144.046 43.3432 125.797 39.4712 96.0915 57.4233Z" fill="#F8F8FF"/>
<path d="M74.8892 83.0901V179.011H219.797L219.943 79.1301L74.8892 78.9834V83.0901Z" fill="#E1E6FB"/>
<path d="M64.0358 91.5968V187.517H208.943L209.09 87.6368L64.0358 87.4901V91.5968Z" fill="#EAEDFB"/>
<path d="M72.6892 97.4635C72.6892 96.2485 71.7042 95.2635 70.4892 95.2635C69.2741 95.2635 68.2892 96.2485 68.2892 97.4635C68.2892 98.6786 69.2741 99.6635 70.4892 99.6635C71.7042 99.6635 72.6892 98.6786 72.6892 97.4635Z" fill="#7E8CC9"/>
<path d="M79.4359 97.4635C79.4359 96.2485 78.4509 95.2635 77.2359 95.2635C76.0208 95.2635 75.0359 96.2485 75.0359 97.4635C75.0359 98.6786 76.0208 99.6635 77.2359 99.6635C78.4509 99.6635 79.4359 98.6786 79.4359 97.4635Z" fill="#7E8CC9"/>
<path d="M86.1826 97.4635C86.1826 96.2485 85.1976 95.2635 83.9826 95.2635C82.7676 95.2635 81.7826 96.2485 81.7826 97.4635C81.7826 98.6786 82.7676 99.6635 83.9826 99.6635C85.1976 99.6635 86.1826 98.6786 86.1826 97.4635Z" fill="#7E8CC9"/>
<g opacity="0.5">
<path d="M72.3958 109.637H71.8092V139.557H72.3958V109.637Z" fill="white"/>
<path d="M75.0359 109.637H74.4492V139.557H75.0359V109.637Z" fill="white"/>
<path d="M77.3825 109.637H76.7959V139.557H77.3825V109.637Z" fill="white"/>
<path d="M80.0226 109.637H79.4359V139.557H80.0226V109.637Z" fill="white"/>
<path d="M82.3692 109.637H81.7826V139.557H82.3692V109.637Z" fill="white"/>
<path d="M85.0093 109.637H84.4226V139.557H85.0093V109.637Z" fill="white"/>
<path d="M87.3559 109.637H86.7693V139.557H87.3559V109.637Z" fill="white"/>
<path d="M89.7026 109.637H89.116V139.557H89.7026V109.637Z" fill="white"/>
<path d="M92.0493 109.637H91.4626V139.557H92.0493V109.637Z" fill="white"/>
<path d="M94.6893 109.637H94.1026V139.557H94.6893V109.637Z" fill="white"/>
<path d="M97.036 109.637H96.4493V139.557H97.036V109.637Z" fill="white"/>
<path d="M99.676 109.637H99.0894V139.557H99.676V109.637Z" fill="white"/>
<path d="M102.023 109.637H101.436V139.557H102.023V109.637Z" fill="white"/>
<path d="M102.023 109.637H71.8092V110.224H102.023V109.637Z" fill="white"/>
<path d="M102.023 112.57H71.8092V113.157H102.023V112.57Z" fill="white"/>
<path d="M102.023 115.504H71.8092V116.09H102.023V115.504Z" fill="white"/>
<path d="M102.023 118.437H71.8092V119.024H102.023V118.437Z" fill="white"/>
<path d="M102.023 121.37H71.8092V121.957H102.023V121.37Z" fill="white"/>
<path d="M102.023 124.304H71.8092V124.89H102.023V124.304Z" fill="white"/>
<path d="M102.023 127.237H71.8092V127.824H102.023V127.237Z" fill="white"/>
<path d="M102.023 130.17H71.8092V130.757H102.023V130.17Z" fill="white"/>
<path d="M102.023 133.104H71.8092V133.69H102.023V133.104Z" fill="white"/>
<path d="M102.023 136.037H71.8092V136.624H102.023V136.037Z" fill="white"/>
<path d="M102.023 138.97H71.8092V139.557H102.023V138.97Z" fill="white"/>
<path d="M109.356 147.184H108.769V177.104H109.356V147.184Z" fill="white"/>
<path d="M111.996 147.184H111.409V177.104H111.996V147.184Z" fill="white"/>
<path d="M114.343 147.184H113.756V177.104H114.343V147.184Z" fill="white"/>
<path d="M116.983 147.184H116.396V177.104H116.983V147.184Z" fill="white"/>
<path d="M119.329 147.184H118.743V177.104H119.329V147.184Z" fill="white"/>
<path d="M121.969 147.184H121.383V177.104H121.969V147.184Z" fill="white"/>
<path d="M124.316 147.184H123.729V177.104H124.316V147.184Z" fill="white"/>
<path d="M126.663 147.184H126.076V177.104H126.663V147.184Z" fill="white"/>
<path d="M129.01 147.184H128.423V177.104H129.01V147.184Z" fill="white"/>
<path d="M131.65 147.184H131.063V177.104H131.65V147.184Z" fill="white"/>
<path d="M133.996 147.184H133.41V177.104H133.996V147.184Z" fill="white"/>
<path d="M136.636 147.184H136.05V177.104H136.636V147.184Z" fill="white"/>
<path d="M138.983 147.184H138.396V177.104H138.983V147.184Z" fill="white"/>
<path d="M138.983 147.184H108.769V147.77H138.983V147.184Z" fill="white"/>
<path d="M138.983 150.117H108.769V150.704H138.983V150.117Z" fill="white"/>
<path d="M138.983 153.051H108.769V153.637H138.983V153.051Z" fill="white"/>
<path d="M138.983 155.984H108.769V156.571H138.983V155.984Z" fill="white"/>
<path d="M138.983 158.917H108.769V159.504H138.983V158.917Z" fill="white"/>
<path d="M138.983 161.851H108.769V162.437H138.983V161.851Z" fill="white"/>
<path d="M138.983 164.784H108.769V165.371H138.983V164.784Z" fill="white"/>
<path d="M138.983 167.717H108.769V168.304H138.983V167.717Z" fill="white"/>
<path d="M138.983 170.651H108.769V171.237H138.983V170.651Z" fill="white"/>
<path d="M138.983 173.584H108.769V174.171H138.983V173.584Z" fill="white"/>
<path d="M138.983 176.517H108.769V177.104H138.983V176.517Z" fill="white"/>
<path d="M142.503 112.864H141.916V142.784H142.503V112.864Z" fill="white"/>
<path d="M145.143 112.864H144.556V142.784H145.143V112.864Z" fill="white"/>
<path d="M147.49 112.864H146.903V142.784H147.49V112.864Z" fill="white"/>
<path d="M150.13 112.864H149.543V142.784H150.13V112.864Z" fill="white"/>
<path d="M152.476 112.864H151.89V142.784H152.476V112.864Z" fill="white"/>
<path d="M155.116 112.864H154.53V142.784H155.116V112.864Z" fill="white"/>
<path d="M157.463 112.864H156.876V142.784H157.463V112.864Z" fill="white"/>
<path d="M159.81 112.864H159.223V142.784H159.81V112.864Z" fill="white"/>
<path d="M162.156 112.864H161.57V142.784H162.156V112.864Z" fill="white"/>
<path d="M164.796 112.864H164.21V142.784H164.796V112.864Z" fill="white"/>
<path d="M167.143 112.864H166.556V142.784H167.143V112.864Z" fill="white"/>
<path d="M169.783 112.864H169.196V142.784H169.783V112.864Z" fill="white"/>
<path d="M172.13 112.864H171.543V142.784H172.13V112.864Z" fill="white"/>
<path d="M172.13 112.864H141.916V113.45H172.13V112.864Z" fill="white"/>
<path d="M172.13 115.797H141.916V116.384H172.13V115.797Z" fill="white"/>
<path d="M172.13 118.73H141.916V119.317H172.13V118.73Z" fill="white"/>
<path d="M172.13 121.664H141.916V122.25H172.13V121.664Z" fill="white"/>
<path d="M172.13 124.597H141.916V125.184H172.13V124.597Z" fill="white"/>
<path d="M172.13 127.53H141.916V128.117H172.13V127.53Z" fill="white"/>
<path d="M172.13 130.464H141.916V131.05H172.13V130.464Z" fill="white"/>
<path d="M172.13 133.397H141.916V133.984H172.13V133.397Z" fill="white"/>
<path d="M172.13 136.33H141.916V136.917H172.13V136.33Z" fill="white"/>
<path d="M172.13 139.264H141.916V139.85H172.13V139.264Z" fill="white"/>
<path d="M172.13 142.197H141.916V142.784H172.13V142.197Z" fill="white"/>
</g>
<path d="M129.303 119.024H86.1826V148.944H129.303V119.024Z" fill="#7E8CC9"/>
<path d="M133.703 122.837H90.5826V152.757H133.703V122.837Z" fill="#E1E6FB"/>
<path d="M124.023 126.944H99.3827V127.53H124.023V126.944Z" fill="white"/>
<path d="M119.623 128.41H99.3827V128.997H119.623V128.41Z" fill="white"/>
<path d="M126.076 129.584H99.3827V130.17H126.076V129.584Z" fill="white"/>
<path d="M111.116 133.397H99.3827V133.984H111.116V133.397Z" fill="white"/>
<path d="M117.276 134.864H99.3827V135.45H117.276V134.864Z" fill="white"/>
<path d="M116.103 136.037H99.3827V136.624H116.103V136.037Z" fill="white"/>
<path d="M111.116 140.144H99.3827V140.73H111.116V140.144Z" fill="white"/>
<path d="M117.276 141.61H99.3827V142.197H117.276V141.61Z" fill="white"/>
<path d="M116.103 142.784H99.3827V143.37H116.103V142.784Z" fill="white"/>
<path d="M95.716 130.464C96.769 130.464 97.6227 129.61 97.6227 128.557C97.6227 127.504 96.769 126.65 95.716 126.65C94.663 126.65 93.8093 127.504 93.8093 128.557C93.8093 129.61 94.663 130.464 95.716 130.464Z" fill="white"/>
<path d="M95.716 136.624C96.769 136.624 97.6227 135.77 97.6227 134.717C97.6227 133.664 96.769 132.81 95.716 132.81C94.663 132.81 93.8093 133.664 93.8093 134.717C93.8093 135.77 94.663 136.624 95.716 136.624Z" fill="white"/>
<path d="M96.0093 143.664C97.0624 143.664 97.916 142.81 97.916 141.757C97.916 140.704 97.0624 139.85 96.0093 139.85C94.9563 139.85 94.1026 140.704 94.1026 141.757C94.1026 142.81 94.9563 143.664 96.0093 143.664Z" fill="white"/>
<path d="M199.997 122.837H178.583V123.424H199.997V122.837Z" fill="white"/>
<path d="M199.997 126.064H178.583V126.65H199.997V126.064Z" fill="white"/>
<path d="M199.997 129.29H178.583V129.877H199.997V129.29Z" fill="white"/>
<path d="M199.997 132.517H178.583V133.104H199.997V132.517Z" fill="white"/>
<path d="M199.997 135.744H178.583V136.33H199.997V135.744Z" fill="white"/>
<path d="M199.997 138.97H178.583V139.557H199.997V138.97Z" fill="white"/>
<path d="M199.997 142.197H178.583V142.784H199.997V142.197Z" fill="white"/>
<path d="M199.997 145.424H178.583V146.01H199.997V145.424Z" fill="white"/>
<path d="M199.997 148.65H178.583V149.237H199.997V148.65Z" fill="white"/>
<path d="M201.757 102.01H67.4091V102.597H201.757V102.01Z" fill="white"/>
<path d="M189.29 119.317C192.935 119.317 195.89 116.362 195.89 112.717C195.89 109.072 192.935 106.117 189.29 106.117C185.645 106.117 182.69 109.072 182.69 112.717C182.69 116.362 185.645 119.317 189.29 119.317Z" fill="white"/>
<path d="M198.237 85.5834V79.7167C198.237 79.7167 198.823 78.2501 196.183 77.0767C193.543 75.9034 188.85 71.21 189.143 63.29C189.437 55.3699 196.77 48.3299 204.983 48.9166C213.197 49.5032 219.063 55.9566 219.357 64.7567C219.65 73.5567 211.73 77.0767 211.73 77.0767C211.73 77.0767 210.263 77.3701 210.263 78.8367V85.5834H198.237Z" fill="#8EA4FF"/>
<path d="M185.366 52.6678L185.051 53.1624L189.997 56.318L190.312 55.8235L185.366 52.6678Z" fill="#8EA4FF"/>
<path d="M198.792 42.7751L198.218 42.8973L199.44 48.6354L200.014 48.5132L198.792 42.7751Z" fill="#8EA4FF"/>
<path d="M215.59 45.1279L215.094 44.8155L211.969 49.7809L212.466 50.0934L215.59 45.1279Z" fill="#8EA4FF"/>
<path d="M225.443 58.2636L225.262 57.7058L219.683 59.5216L219.865 60.0795L225.443 58.2636Z" fill="#8EA4FF"/>
<path d="M223.168 75.3745L223.478 74.8767L218.5 71.773L218.189 72.2709L223.168 75.3745Z" fill="#8EA4FF"/>
<path d="M192.611 82.9212L193.107 83.2339L196.234 78.2701L195.738 77.9574L192.611 82.9212Z" fill="#8EA4FF"/>
<path d="M182.975 69.8276L183.108 70.3989L188.821 69.0662L188.688 68.4949L182.975 69.8276Z" fill="#8EA4FF"/>
<path d="M210.41 85.5834H198.09C197.523 85.5834 197.063 86.0431 197.063 86.6101C197.063 87.1771 197.523 87.6368 198.09 87.6368H210.41C210.977 87.6368 211.437 87.1771 211.437 86.6101C211.437 86.0431 210.977 85.5834 210.41 85.5834Z" fill="#8EA4FF"/>
<path d="M210.117 89.3968H198.383C197.816 89.3968 197.357 89.8565 197.357 90.4235C197.357 90.9905 197.816 91.4502 198.383 91.4502H210.117C210.684 91.4502 211.143 90.9905 211.143 90.4235C211.143 89.8565 210.684 89.3968 210.117 89.3968Z" fill="#8EA4FF"/>
<path d="M210.263 87.6368H198.237C197.751 87.6368 197.357 88.0308 197.357 88.5168C197.357 89.0028 197.751 89.3968 198.237 89.3968H210.263C210.749 89.3968 211.143 89.0028 211.143 88.5168C211.143 88.0308 210.749 87.6368 210.263 87.6368Z" fill="white"/>
<path d="M198.823 91.4501H209.6C209.6 91.4501 209.383 94.9702 204.397 94.9702C199.41 94.9702 199.703 92.9168 198.823 91.4501Z" fill="white"/>
<path d="M208.365 128.117H242.853C243.005 128.117 243.155 128.149 243.294 128.211C243.433 128.273 243.557 128.363 243.659 128.477C243.761 128.59 243.837 128.723 243.884 128.868C243.93 129.013 243.946 129.166 243.929 129.317L241.527 151.205C241.497 151.47 241.371 151.715 241.173 151.893C240.974 152.071 240.717 152.17 240.45 152.171H205.963C205.811 152.171 205.661 152.139 205.522 152.077C205.383 152.015 205.258 151.924 205.157 151.811C205.055 151.698 204.979 151.564 204.932 151.42C204.886 151.275 204.87 151.122 204.887 150.971L207.289 129.082C207.318 128.817 207.444 128.572 207.642 128.393C207.841 128.215 208.099 128.117 208.365 128.117V128.117Z" fill="#E1E6FB"/>
<path d="M206.019 128.117H240.506C240.658 128.117 240.809 128.149 240.948 128.211C241.086 128.273 241.211 128.363 241.312 128.477C241.414 128.59 241.49 128.723 241.537 128.868C241.584 129.013 241.599 129.166 241.583 129.317L239.18 151.205C239.151 151.47 239.025 151.715 238.826 151.893C238.628 152.071 238.37 152.17 238.104 152.171H203.616C203.464 152.171 203.314 152.139 203.175 152.077C203.036 152.015 202.912 151.924 202.81 151.811C202.709 151.698 202.632 151.564 202.585 151.42C202.539 151.275 202.523 151.122 202.54 150.971L204.942 129.082C204.971 128.817 205.097 128.572 205.296 128.393C205.494 128.215 205.752 128.117 206.019 128.117Z" fill="white"/>
<path d="M205.57 128.214L219.715 141.317L240.958 128.214H205.57Z" fill="#BAC5F4"/>
<path d="M181.209 217.432L139.476 217.291C138.385 217.291 137.502 217.238 137.505 216.147L137.525 210.574C137.525 209.494 138.405 209.652 139.479 209.641L180.942 209.224C181.461 209.254 182.332 208.893 183.766 209.518C185.697 210.345 187.081 215.416 182.969 217.162C182.394 217.319 181.804 217.41 181.209 217.432Z" fill="#628395"/>
<path d="M138.191 216.141L149.358 216.182C149.54 216.182 149.715 216.11 149.845 215.981C149.974 215.853 150.047 215.678 150.048 215.496V211.078C150.048 210.896 149.975 210.721 149.847 210.592C149.718 210.462 149.543 210.389 149.361 210.389L138.197 210.351C137.968 210.326 137.736 210.337 137.51 210.383L137.505 216.118C137.733 216.141 137.962 216.149 138.191 216.141V216.141Z" fill="white"/>
<path d="M141.905 201.48H183.634C184.726 201.48 185.611 201.527 185.611 202.618V208.192C185.611 209.271 184.731 209.116 183.661 209.13L142.198 209.694C141.682 209.67 140.807 209.456 139.464 208.998C137.475 208.324 136.038 203.533 140.145 201.773C140.718 201.608 141.309 201.51 141.905 201.48Z" fill="#EAEDFB"/>
<path d="M184.925 202.624H173.761C173.578 202.624 173.404 202.696 173.274 202.825C173.145 202.954 173.072 203.128 173.071 203.311V207.731C173.072 207.913 173.145 208.088 173.274 208.217C173.404 208.345 173.578 208.418 173.761 208.418H184.925C185.154 208.44 185.386 208.428 185.611 208.382V202.639C185.383 202.617 185.154 202.612 184.925 202.624Z" fill="#B0C0F4"/>
<path d="M138.373 194.552H180.103C181.197 194.552 182.08 194.596 182.08 195.687V201.26C182.08 202.343 181.2 202.184 180.129 202.199L138.666 202.762C138.15 202.736 137.276 202.521 135.932 202.064C133.943 201.392 132.506 196.602 136.613 194.842C137.186 194.676 137.777 194.579 138.373 194.552V194.552Z" fill="#628395"/>
<path d="M181.393 195.687H170.229C170.139 195.687 170.049 195.705 169.966 195.739C169.882 195.774 169.806 195.825 169.743 195.889C169.679 195.953 169.628 196.029 169.594 196.113C169.56 196.196 169.542 196.286 169.543 196.376V200.794C169.542 200.884 169.56 200.973 169.594 201.057C169.628 201.14 169.679 201.216 169.743 201.28C169.807 201.344 169.882 201.394 169.966 201.429C170.049 201.463 170.139 201.481 170.229 201.48H181.393C181.622 201.501 181.854 201.49 182.08 201.448V195.707C181.852 195.685 181.622 195.678 181.393 195.687V195.687Z" fill="white"/>
<path d="M61.5806 203.891C72.4559 203.891 81.2722 195.075 81.2722 184.2C81.2722 173.324 72.4559 164.508 61.5806 164.508C50.7052 164.508 41.889 173.324 41.889 184.2C41.889 195.075 50.7052 203.891 61.5806 203.891Z" stroke="#E1E6FB" stroke-width="1.17334" stroke-miterlimit="10" stroke-dasharray="3.44 3.44"/>
<path d="M63.9654 202.431H59.1928C58.5902 202.431 58.1016 202.919 58.1016 203.522C58.1016 204.124 58.5902 204.613 59.1928 204.613H63.9654C64.568 204.613 65.0566 204.124 65.0566 203.522C65.0566 202.919 64.568 202.431 63.9654 202.431Z" fill="#E1E6FB"/>
<path d="M61.6833 201.551C71.3225 201.551 79.1367 193.736 79.1367 184.097C79.1367 174.458 71.3225 166.644 61.6833 166.644C52.044 166.644 44.2298 174.458 44.2298 184.097C44.2298 193.736 52.044 201.551 61.6833 201.551Z" fill="#E1E6FB"/>
<path d="M62.3872 203.891H60.9734V287.832H62.3872V203.891Z" fill="#E1E6FB"/>
<path d="M81.7479 240.539C87.6544 234.633 87.6544 225.057 81.7479 219.15C75.8415 213.244 66.2653 213.244 60.3589 219.15C54.4524 225.057 54.4524 234.633 60.3589 240.539C66.2653 246.446 75.8415 246.446 81.7479 240.539Z" stroke="#E1E6FB" stroke-width="1.17334" stroke-miterlimit="10" stroke-dasharray="3.39 3.39"/>
<path d="M72.9327 243.849H69.175C68.7376 243.849 68.383 244.204 68.383 244.641V244.732C68.383 245.17 68.7376 245.524 69.175 245.524H72.9327C73.3701 245.524 73.7247 245.17 73.7247 244.732V244.641C73.7247 244.204 73.3701 243.849 72.9327 243.849Z" fill="#E1E6FB"/>
<path d="M73.5017 287.832H59.0931C58.6557 287.832 58.3011 288.187 58.3011 288.624V288.715C58.3011 289.152 58.6557 289.507 59.0931 289.507H73.5017C73.9391 289.507 74.2937 289.152 74.2937 288.715V288.624C74.2937 288.187 73.9391 287.832 73.5017 287.832Z" fill="#E1E6FB"/>
<path d="M77.2153 289.299H55.0832C54.6458 289.299 54.2912 289.653 54.2912 290.091V290.182C54.2912 290.619 54.6458 290.974 55.0832 290.974H77.2153C77.6527 290.974 78.0073 290.619 78.0073 290.182V290.091C78.0073 289.653 77.6527 289.299 77.2153 289.299Z" fill="#E1E6FB"/>
<path d="M71.1345 243.172C78.5381 243.172 84.5399 237.17 84.5399 229.766C84.5399 222.363 78.5381 216.361 71.1345 216.361C63.7309 216.361 57.7291 222.363 57.7291 229.766C57.7291 237.17 63.7309 243.172 71.1345 243.172Z" fill="#E1E6FB"/>
<path d="M71.7945 203.891H70.3806V287.832H71.7945V203.891Z" fill="#E1E6FB"/>
<path d="M172.505 256.243C172.217 256.58 172.004 256.974 171.881 257.4C171.758 257.826 171.728 258.273 171.792 258.712C171.855 259.15 172.012 259.57 172.252 259.943C172.491 260.316 172.808 260.634 173.18 260.875C182.807 267.102 215.174 285.444 241.82 270.103C273.501 251.857 286.926 203.46 286.167 198.899C285.407 194.337 269.696 193.452 243.34 194.402C216.984 195.352 246.625 241.47 216.47 245.777C186.315 250.083 194.177 237.669 184.541 245.017C180.151 248.332 176.117 252.094 172.505 256.243V256.243Z" fill="#FA92B2"/>
<path d="M190.009 242.761C190.009 242.761 229.782 253.254 230.932 230.3C232.525 198.303 239.163 200.943 238.664 221.357C238.165 241.77 238.473 243.357 228.984 247.39C220.809 250.866 213.953 251.479 202.959 249.267C193.972 247.46 190.009 242.761 190.009 242.761Z" fill="#FFB4CB"/>
<path d="M185.278 264.974L183.579 263.665L173.987 276.107L175.685 277.417L185.278 264.974Z" fill="#FA92B2"/>
<path d="M174.025 281.015C175.68 281.015 177.023 279.673 177.023 278.017C177.023 276.361 175.68 275.019 174.025 275.019C172.369 275.019 171.027 276.361 171.027 278.017C171.027 279.673 172.369 281.015 174.025 281.015Z" fill="#FFB4CB"/>
<path d="M205.793 272.612L203.936 271.539L196.08 285.146L197.937 286.218L205.793 272.612Z" fill="#FA92B2"/>
<path d="M196.526 290.079C198.182 290.079 199.524 288.737 199.524 287.081C199.524 285.426 198.182 284.083 196.526 284.083C194.871 284.083 193.529 285.426 193.529 287.081C193.529 288.737 194.871 290.079 196.526 290.079Z" fill="#FFB4CB"/>
<path d="M241.392 268.624L239.743 269.995L251.96 284.683L253.608 283.312L241.392 268.624Z" fill="#FA92B2"/>
<path d="M253.604 288.392C255.259 288.392 256.601 287.05 256.601 285.394C256.601 283.739 255.259 282.397 253.604 282.397C251.948 282.397 250.606 283.739 250.606 285.394C250.606 287.05 251.948 288.392 253.604 288.392Z" fill="#FFB4CB"/>
<path d="M218.596 261.731L216.947 263.102L229.163 277.791L230.812 276.42L218.596 261.731Z" fill="#FA92B2"/>
<path d="M230.809 281.502C232.464 281.502 233.806 280.16 233.806 278.504C233.806 276.848 232.464 275.506 230.809 275.506C229.153 275.506 227.811 276.848 227.811 278.504C227.811 280.16 229.153 281.502 230.809 281.502Z" fill="#FFB4CB"/>
</g>
<defs>
<clipPath id="clip0">
<rect width="286.188" height="302.625" fill="white"/>
</clipPath>
</defs>
</svg>
