<svg width="329" height="204" viewBox="0 0 329 204" fill="none" xmlns="http://www.w3.org/2000/svg">
<g clip-path="url(#clip0)">
<path d="M31.5808 107.896C26.6472 78.7768 15.6248 76.2385 7.14906 61.5403C-0.56723 48.1705 -6.79002 26.2985 14.9866 10.6618C48.8132 -13.6468 90.2986 11.2271 90.2986 11.2271C90.2986 11.2271 156.037 44.5808 167.525 46.2767C179.014 47.9727 207.096 64.9322 242.199 44.5808C277.302 24.2294 307.299 25.9253 316.873 41.1889C326.446 56.4524 304.746 100.547 299.64 109.592C294.535 118.637 302.193 146.903 310.49 158.209C318.788 169.516 344.955 204.565 288.79 203.435C232.626 202.304 64.1309 204 64.1309 204C64.1309 204 3.64515 202.999 14.3484 150.86C23.2837 107.331 33.4955 119.203 31.5808 107.896Z" fill="#F8F8FF"/>
<path d="M53.2808 103.939C60.3306 103.939 66.0456 98.877 66.0456 92.6327C66.0456 86.3884 60.3306 81.3264 53.2808 81.3264C46.2311 81.3264 40.5161 86.3884 40.5161 92.6327C40.5161 98.877 46.2311 103.939 53.2808 103.939Z" fill="#BAC5F4"/>
<path d="M31.8999 114.115C36.6585 114.115 40.5161 110.698 40.5161 106.483C40.5161 102.268 36.6585 98.8512 31.8999 98.8512C27.1413 98.8512 23.2837 102.268 23.2837 106.483C23.2837 110.698 27.1413 114.115 31.8999 114.115Z" fill="#BAC5F4"/>
<path d="M33.1763 93.198C35.82 93.198 37.9631 91.2998 37.9631 88.9581C37.9631 86.6165 35.82 84.7183 33.1763 84.7183C30.5327 84.7183 28.3896 86.6165 28.3896 88.9581C28.3896 91.2998 30.5327 93.198 33.1763 93.198Z" fill="#BAC5F4"/>
<path d="M316.235 180.257C323.284 180.257 328.999 175.195 328.999 168.95C328.999 162.706 323.284 157.644 316.235 157.644C309.185 157.644 303.47 162.706 303.47 168.95C303.47 175.195 309.185 180.257 316.235 180.257Z" fill="#BAC5F4"/>
<path d="M9.56156 39.493C12.2052 39.493 14.3483 37.5947 14.3483 35.2531C14.3483 32.9115 12.2052 31.0132 9.56156 31.0132C6.91789 31.0132 4.77478 32.9115 4.77478 35.2531C4.77478 37.5947 6.91789 39.493 9.56156 39.493Z" fill="#BAC5F4"/>
<path d="M89.3412 188.171C101.855 188.171 111.999 179.186 111.999 168.102C111.999 157.019 101.855 148.034 89.3412 148.034C76.8279 148.034 66.6838 157.019 66.6838 168.102C66.6838 179.186 76.8279 188.171 89.3412 188.171Z" fill="#E1E6FB"/>
<path d="M239.008 197.782C247.468 197.782 254.326 191.707 254.326 184.214C254.326 176.721 247.468 170.646 239.008 170.646C230.548 170.646 223.69 176.721 223.69 184.214C223.69 191.707 230.548 197.782 239.008 197.782Z" fill="#E1E6FB"/>
<path d="M297.726 121.464C302.308 121.464 306.023 118.174 306.023 114.115C306.023 110.056 302.308 106.766 297.726 106.766C293.143 106.766 289.429 110.056 289.429 114.115C289.429 118.174 293.143 121.464 297.726 121.464Z" fill="#E1E6FB"/>
<path d="M235.817 62.671C244.981 62.671 252.411 56.0903 252.411 47.9727C252.411 39.8551 244.981 33.2745 235.817 33.2745C226.652 33.2745 219.222 39.8551 219.222 47.9727C219.222 56.0903 226.652 62.671 235.817 62.671Z" fill="#E1E6FB"/>
<path d="M83.5971 15.7497C88.0032 15.7497 91.575 12.5859 91.575 8.68324C91.575 4.78055 88.0032 1.61679 83.5971 1.61679C79.191 1.61679 75.6191 4.78055 75.6191 8.68324C75.6191 12.5859 79.191 15.7497 83.5971 15.7497Z" fill="#E1E6FB"/>
<path d="M58.0676 156.513C62.4737 156.513 66.0456 153.35 66.0456 149.447C66.0456 145.544 62.4737 142.381 58.0676 142.381C53.6615 142.381 50.0896 145.544 50.0896 149.447C50.0896 153.35 53.6615 156.513 58.0676 156.513Z" fill="#E1E6FB"/>
<path d="M315.277 74.5426C319.683 74.5426 323.255 71.3788 323.255 67.4761C323.255 63.5734 319.683 60.4097 315.277 60.4097C310.871 60.4097 307.299 63.5734 307.299 67.4761C307.299 71.3788 310.871 74.5426 315.277 74.5426Z" fill="#BAC5F4"/>
<path d="M302.512 194.955C307.271 194.955 311.129 191.538 311.129 187.323C311.129 183.108 307.271 179.691 302.512 179.691C297.754 179.691 293.896 183.108 293.896 187.323C293.896 191.538 297.754 194.955 302.512 194.955Z" fill="#BAC5F4"/>
<path d="M321.66 195.52C324.303 195.52 326.446 193.622 326.446 191.28C326.446 188.939 324.303 187.04 321.66 187.04C319.016 187.04 316.873 188.939 316.873 191.28C316.873 193.622 319.016 195.52 321.66 195.52Z" fill="#BAC5F4"/>
<path d="M91.2088 143.239H271.205C271.205 143.239 277.929 142.932 277.929 136.134V122.733H84.1182V139.077C84.5893 140.338 85.5265 141.429 86.7849 142.182C88.0432 142.935 89.5525 143.306 91.0788 143.239" fill="#BAC5F4"/>
<path d="M84.1182 21.2297L84 127.86L277.929 126.322V18.1538C277.929 18.1538 279.111 12.002 271.559 12.002H91.4334C91.4334 12.002 83.2909 12.002 84.1182 21.322" fill="#BAC5F4"/>
<path d="M165.661 171.845V142.214L194.023 143.239V169.282L165.661 171.845Z" fill="#BAC5F4"/>
<path d="M120.635 168.872L238.493 168.902L238.564 173.998H120.635V168.872Z" fill="#BAC5F4"/>
<path d="M179.286 130.013C180.408 130.013 181.505 130.302 182.438 130.842C183.371 131.383 184.098 132.152 184.527 133.051C184.956 133.95 185.069 134.94 184.85 135.895C184.631 136.849 184.091 137.726 183.297 138.414C182.504 139.103 181.493 139.571 180.393 139.761C179.293 139.951 178.152 139.854 177.116 139.481C176.079 139.109 175.193 138.478 174.57 137.669C173.947 136.859 173.614 135.908 173.614 134.934C173.614 133.629 174.212 132.377 175.275 131.455C176.339 130.532 177.782 130.013 179.286 130.013" fill="white"/>
<path d="M272.02 17.1283H90.027V120.683H272.02V17.1283Z" fill="#F8F8FF"/>
<path d="M99.1621 22.4599C99.7231 22.4599 100.271 22.6042 100.738 22.8745C101.204 23.1449 101.568 23.5292 101.782 23.9789C101.997 24.4285 102.053 24.9233 101.944 25.4006C101.834 25.8779 101.564 26.3164 101.168 26.6605C100.771 27.0047 100.266 27.239 99.7155 27.334C99.1653 27.4289 98.5951 27.3802 98.0768 27.194C97.5585 27.0077 97.1156 26.6923 96.8039 26.2877C96.4923 25.883 96.3259 25.4072 96.3259 24.9206C96.3259 24.2679 96.6247 23.6421 97.1566 23.1806C97.6885 22.7191 98.4099 22.4599 99.1621 22.4599" fill="#FA5F5D"/>
<path d="M108.853 22.4599C109.414 22.4599 109.962 22.6042 110.429 22.8745C110.895 23.1449 111.258 23.5292 111.473 23.9789C111.688 24.4285 111.744 24.9233 111.635 25.4006C111.525 25.8779 111.255 26.3164 110.858 26.6605C110.462 27.0047 109.956 27.239 109.406 27.334C108.856 27.4289 108.286 27.3802 107.767 27.194C107.249 27.0077 106.806 26.6923 106.494 26.2877C106.183 25.883 106.016 25.4072 106.016 24.9206C106.016 24.5974 106.09 24.2774 106.232 23.9789C106.375 23.6803 106.584 23.4091 106.847 23.1806C107.11 22.9521 107.423 22.7708 107.767 22.6472C108.111 22.5235 108.48 22.4599 108.853 22.4599" fill="#FDBC4E"/>
<path d="M119.016 22.4599C119.577 22.4599 120.125 22.6042 120.592 22.8745C121.058 23.1449 121.422 23.5292 121.636 23.9789C121.851 24.4285 121.907 24.9233 121.798 25.4006C121.688 25.8779 121.418 26.3164 121.022 26.6605C120.625 27.0047 120.119 27.239 119.569 27.334C119.019 27.4289 118.449 27.3802 117.931 27.194C117.412 27.0077 116.969 26.6923 116.658 26.2877C116.346 25.883 116.18 25.4072 116.18 24.9206C116.18 24.2679 116.478 23.6421 117.01 23.1806C117.542 22.7191 118.264 22.4599 119.016 22.4599" fill="#37CD58"/>
<path d="M158.57 40.4538C158.527 41.0984 158.193 41.7024 157.64 42.1344C157.086 42.5664 156.359 42.7915 155.615 42.7607H120.753C118.957 42.7607 117.208 41.7354 117.208 40.4538V35.8502C117.208 34.5686 118.921 33.533 120.753 33.533H155.545C156.29 33.4789 157.03 33.6823 157.603 34.099C158.176 34.5156 158.536 35.1119 158.605 35.7579C158.605 35.7579 158.605 35.8194 158.605 35.8502L158.57 40.4538Z" fill="url(#paint0_linear)"/>
<path d="M242.476 71.0793C242.45 71.4219 242.347 71.7569 242.172 72.065C241.998 72.3731 241.755 72.6483 241.457 72.8749C241.16 73.1015 240.814 73.2751 240.439 73.3857C240.064 73.4963 239.668 73.5417 239.273 73.5195H120.753C118.933 73.5195 117.208 72.4326 117.208 71.0793V48.2768C117.208 46.9234 118.945 45.8366 120.753 45.8366H239.261C239.656 45.8129 240.053 45.8569 240.428 45.9662C240.804 46.0755 241.151 46.248 241.449 46.4736C241.748 46.6993 241.992 46.9738 242.168 47.2814C242.344 47.589 242.449 47.9238 242.476 48.2665V48.2665V71.0793Z" fill="url(#paint1_linear)"/>
<path d="M156.206 90.5086C156.206 90.8379 156.131 91.1641 155.986 91.4683C155.84 91.7725 155.627 92.0487 155.358 92.2812C155.089 92.5136 154.769 92.6977 154.418 92.8228C154.067 92.9479 153.691 93.0116 153.311 93.0103H120.753C118.921 93.0103 117.208 91.8927 117.208 90.5188V78.0513C117.208 76.6876 118.957 75.57 120.753 75.57H153.11C153.488 75.5478 153.868 75.5907 154.227 75.6964C154.586 75.8021 154.917 75.9684 155.202 76.1857C155.486 76.403 155.719 76.6671 155.885 76.9626C156.051 77.2582 156.148 77.5794 156.171 77.9077C156.171 77.9077 156.171 78 156.171 78.0513L156.206 90.5086Z" fill="url(#paint2_linear)"/>
<path d="M198.75 90.5085C198.753 90.8352 198.682 91.1593 198.54 91.462C198.399 91.7647 198.19 92.0402 197.925 92.2726C197.661 92.5051 197.346 92.6899 196.999 92.8165C196.651 92.9431 196.279 93.0089 195.902 93.0103H163.297C161.453 93.0103 159.752 91.8927 159.752 90.5188V78.0513C159.752 76.6876 161.524 75.57 163.297 75.57H195.689C196.446 75.5308 197.19 75.7539 197.757 76.1903C198.325 76.6268 198.669 77.2408 198.715 77.8974C198.715 77.9487 198.715 78 198.715 78.0513L198.75 90.5085Z" fill="url(#paint3_linear)"/>
<path d="M242.476 90.5086C242.427 91.2114 242.059 91.8688 241.452 92.336C240.844 92.8032 240.048 93.0421 239.238 93H206.881C206.051 93.0516 205.231 92.82 204.595 92.3546C203.96 91.8892 203.558 91.2268 203.477 90.5086V78.0513C203.561 77.3349 203.964 76.675 204.599 76.2118C205.235 75.7485 206.053 75.5183 206.881 75.57H239.226C239.627 75.5478 240.029 75.5943 240.41 75.707C240.79 75.8196 241.141 75.9962 241.443 76.2266C241.745 76.457 241.992 76.7367 242.169 77.0498C242.346 77.3629 242.45 77.7032 242.476 78.0513V78.0513V90.5086Z" fill="url(#paint4_linear)"/>
<path d="M198.75 97.6138C198.639 97.8416 198.467 98.0437 198.25 98.2039C198.032 98.3641 197.775 98.478 197.497 98.5366C197.427 98.5366 197.356 98.5366 197.285 98.1265H161.548C160.815 98.5366 159.728 98.1777 159.752 97.6138V97.2139C159.752 96.65 160.815 96.1886 161.548 96.0759H197.285C197.559 96.1203 197.812 96.2364 198.008 96.4086C198.205 96.5808 198.336 96.801 198.384 97.0396C198.384 97.1012 198.384 97.1524 198.75 97.2139V97.6138Z" fill="#E9EDFB"/>
<path d="M198.75 101.653C198.645 101.903 198.472 102.126 198.246 102.305C198.019 102.484 197.746 102.612 197.45 102.679C197.45 102.679 197.344 102.679 197.285 102.238H161.548C160.815 102.689 159.728 102.238 159.752 101.664V101.202C159.752 100.649 160.815 100.331 161.548 100.177H197.285C197.597 100.252 197.888 100.381 198.14 100.558C198.392 100.734 198.6 100.953 198.75 101.202V101.653Z" fill="#E9EDFB"/>
<path d="M198.75 105.703C198.638 105.981 198.445 106.228 198.191 106.422C197.936 106.616 197.628 106.75 197.297 106.811C197.278 106.65 197.278 106.489 197.297 106.329H161.56C161.401 106.419 161.219 106.474 161.03 106.49C160.841 106.506 160.65 106.483 160.474 106.422C160.298 106.36 160.141 106.263 160.018 106.138C159.894 106.013 159.807 105.864 159.764 105.703V105.304C159.764 104.75 160.827 104.524 161.56 104.278H197.297C197.609 104.353 197.9 104.482 198.152 104.659C198.404 104.835 198.612 105.055 198.762 105.304L198.75 105.703Z" fill="#E9EDFB"/>
<path d="M198.75 109.743C198.403 110.396 197.904 110.979 197.285 111.455H161.548C160.815 110.943 159.728 110.307 159.752 109.743V109.343C159.752 108.779 160.815 108.185 161.548 108.379H197.285C197.43 108.349 197.582 108.35 197.727 108.383C197.872 108.416 198.005 108.479 198.115 108.568C198.225 108.656 198.308 108.766 198.357 108.889C198.406 109.012 198.419 109.143 198.396 109.271C198.396 109.271 198.396 109.271 198.75 109.343V109.743Z" fill="#E9EDFB"/>
<path d="M178.92 113.783C178.92 114.285 178.53 114.531 177.856 114.531H161.406C160.744 114.531 159.764 114.285 159.764 113.783V113.414C159.764 112.911 160.744 112.491 161.406 112.491H177.868C178.008 112.491 178.146 112.515 178.275 112.561C178.404 112.607 178.522 112.675 178.62 112.761C178.719 112.847 178.797 112.949 178.851 113.06C178.904 113.172 178.932 113.292 178.932 113.414L178.92 113.783Z" fill="#E9EDFB"/>
<path d="M242.476 97.6138C241.802 98.1777 241.92 98.5366 241.188 98.1265H205.439C204.836 98.5776 204.257 98.1982 204.257 97.6753C204.257 97.6753 204.257 97.6753 204.659 97.6138V97.2139C204.293 96.6705 204.813 96.1886 205.439 96.0759H241.188C241.92 96.2399 241.802 96.65 242.476 97.2139V97.6138Z" fill="#E9EDFB"/>
<path d="M242.476 101.653C241.802 102.217 241.921 102.679 241.188 102.228H205.439C204.789 102.679 204.257 102.228 204.659 101.653V101.202C204.257 100.649 204.754 100.331 205.439 100.177H241.188C241.921 100.382 241.802 100.7 242.476 101.202V101.653Z" fill="#E9EDFB"/>
<path d="M242.476 105.703C241.802 106.257 241.921 106.811 241.188 106.329H205.439C204.766 106.77 204.257 106.329 204.659 105.703V105.304C204.257 104.75 204.754 104.524 205.439 104.278H241.188C241.921 104.514 241.802 104.74 242.476 105.304V105.703Z" fill="#E9EDFB"/>
<path d="M242.476 109.743C241.802 110.307 241.92 110.943 241.188 111.455H205.439C204.742 110.871 204.257 110.348 204.659 109.743V109.343C204.555 109.241 204.493 109.112 204.484 108.976C204.475 108.84 204.519 108.705 204.609 108.593C204.7 108.482 204.831 108.4 204.981 108.361C205.132 108.322 205.293 108.329 205.439 108.379H241.188C241.92 108.185 241.802 108.779 242.476 109.343V109.743Z" fill="#E9EDFB"/>
<path d="M222.823 113.783C222.823 114.285 222.823 114.531 222.197 114.531H205.723C205.061 114.531 204.659 114.285 204.659 113.783V113.414C204.659 113.169 204.771 112.934 204.971 112.761C205.17 112.588 205.441 112.491 205.723 112.491H222.173C222.835 112.491 222.799 112.942 222.799 113.414L222.823 113.783Z" fill="#E9EDFB"/>
<path d="M155.025 97.6138C155.486 98.1777 155.226 98.5366 154.493 98.1265H118.744C118.614 98.2156 118.459 98.2739 118.295 98.2954C118.131 98.317 117.963 98.3011 117.808 98.2494C117.653 98.1977 117.516 98.1119 117.411 98.0005C117.306 97.889 117.236 97.7558 117.208 97.6138V97.2139C117.326 96.924 117.531 96.6662 117.8 96.4664C118.07 96.2666 118.396 96.1319 118.744 96.0759H154.493C155.226 96.2399 155.486 96.65 155.025 97.2139V97.6138Z" fill="#E9EDFB"/>
<path d="M155.025 101.653C155.486 102.217 155.226 102.679 154.493 102.228H118.744C118.035 102.71 117.432 102.228 117.208 101.653V101.202C117.361 100.649 118.012 100.331 118.744 100.177H154.493C155.226 100.382 155.486 100.7 155.025 101.202V101.653Z" fill="#E9EDFB"/>
<path d="M155.025 105.703C155.486 106.257 155.226 106.811 154.493 106.329H118.744C118.023 106.8 117.432 106.329 117.208 105.703V105.304C117.361 104.75 118.012 104.524 118.744 104.278H154.493C155.226 104.514 155.486 104.74 155.025 105.304V105.703Z" fill="#E9EDFB"/>
<path d="M144.389 108.379H154.493C155.226 108.185 155.486 108.779 155.025 109.343V109.743C155.486 110.307 155.226 110.943 154.493 111.455H118.744C118.051 111.026 117.517 110.431 117.208 109.743V109.343C117.234 109.192 117.294 109.046 117.386 108.915C117.478 108.784 117.599 108.67 117.742 108.58C117.885 108.49 118.047 108.426 118.22 108.392C118.392 108.357 118.57 108.353 118.744 108.379H144.389Z" fill="#E9EDFB"/>
<path d="M137.298 113.783C137.298 114.285 136.967 114.531 136.246 114.531H118.52C117.811 114.531 117.172 114.285 117.172 113.783V113.414C117.227 113.143 117.395 112.899 117.643 112.729C117.892 112.559 118.204 112.474 118.52 112.491H136.246C136.381 112.487 136.515 112.506 136.641 112.547C136.766 112.588 136.882 112.651 136.979 112.731C137.077 112.811 137.156 112.907 137.211 113.014C137.265 113.12 137.295 113.235 137.298 113.352C137.298 113.352 137.298 113.352 137.298 113.424V113.783Z" fill="#E9EDFB"/>
</g>
<defs>
<linearGradient id="paint0_linear" x1="117.208" y1="38.1468" x2="158.57" y2="38.1468" gradientUnits="userSpaceOnUse">
<stop stop-color="#F71D69"/>
<stop offset="1" stop-color="#F8C648"/>
</linearGradient>
<linearGradient id="paint1_linear" x1="117.208" y1="59.678" x2="242.476" y2="59.678" gradientUnits="userSpaceOnUse">
<stop stop-color="#E5A4ED"/>
<stop offset="1" stop-color="#7A5BF5"/>
</linearGradient>
<linearGradient id="paint2_linear" x1="117.208" y1="7167.35" x2="41884.7" y2="7167.35" gradientUnits="userSpaceOnUse">
<stop stop-color="#E5A4ED"/>
<stop offset="1" stop-color="#7A5BF5"/>
</linearGradient>
<linearGradient id="paint3_linear" x1="42044.3" y1="7166.81" x2="43331.2" y2="7166.81" gradientUnits="userSpaceOnUse">
<stop stop-color="#E5A4ED"/>
<stop offset="1" stop-color="#7A5BF5"/>
</linearGradient>
<linearGradient id="paint4_linear" x1="43530.9" y1="7166.63" x2="242.474" y2="7166.63" gradientUnits="userSpaceOnUse">
<stop stop-color="#E5A4ED"/>
<stop offset="1" stop-color="#7A5BF5"/>
</linearGradient>
<clipPath id="clip0">
<rect width="329" height="204" fill="white"/>
</clipPath>
</defs>
</svg>
